<mxfile host="app.diagrams.net" modified="2023-11-11T19:15:45.328Z" agent="Mozilla/5.0 (Windows NT 10.0; Win64; x64) AppleWebKit/537.36 (KHTML, like Gecko) Chrome/119.0.0.0 Safari/537.36" version="22.1.0" etag="aRSO0BCHYQxaxOB0DQFf" type="github">
  <diagram name="Page-1" id="j5WrF63YwRt9LHCXIv9J">
    <mxGraphModel>
      <root>
        <mxCell id="0" />
        <mxCell id="1" parent="0" />
      </root>
    </mxGraphModel>
  </diagram>
</mxfile>
